<svg width="461" height="256" viewBox="0 0 461 256" fill="none" xmlns="http://www.w3.org/2000/svg">
<g filter="url(#filter0_d_582_419)">
<path d="M43 79.48C43 67.8466 43 62.0298 44.9739 57.4685C47.3982 51.8662 51.8662 47.3982 57.4685 44.9739C62.0298 43 67.8466 43 79.48 43H381.52C393.153 43 398.97 43 403.532 44.9739C409.134 47.3982 413.602 51.8662 416.026 57.4685C418 62.0298 418 67.8466 418 79.48V176.52C418 188.153 418 193.97 416.026 198.532C413.602 204.134 409.134 208.602 403.532 211.026C398.97 213 393.153 213 381.52 213H79.48C67.8466 213 62.0298 213 57.4685 211.026C51.8662 208.602 47.3982 204.134 44.9739 198.532C43 193.97 43 188.153 43 176.52V79.48Z" fill="url(#paint0_linear_582_419)" shape-rendering="crispEdges"/>
<path d="M79.48 43.5H381.52C387.344 43.5 391.686 43.5003 395.142 43.7455C398.594 43.9903 401.126 44.4776 403.333 45.4328C408.819 47.8066 413.193 52.1815 415.567 57.667C416.522 59.8743 417.01 62.4056 417.255 65.8576C417.5 69.3143 417.5 73.6562 417.5 79.48V176.52C417.5 182.344 417.5 186.686 417.255 190.142C417.01 193.594 416.522 196.126 415.567 198.333C413.193 203.819 408.819 208.193 403.333 210.567C401.126 211.522 398.594 212.01 395.142 212.255C391.686 212.5 387.344 212.5 381.52 212.5H79.48C73.6562 212.5 69.3143 212.5 65.8576 212.255C62.4056 212.01 59.8743 211.522 57.667 210.567C52.1815 208.193 47.8066 203.819 45.4328 198.333C44.4776 196.126 43.9903 193.594 43.7455 190.142C43.5003 186.686 43.5 182.344 43.5 176.52V79.48C43.5 73.6562 43.5003 69.3143 43.7455 65.8576C43.9903 62.4056 44.4776 59.8743 45.4328 57.667C47.8066 52.1815 52.1815 47.8066 57.667 45.4328C59.8743 44.4776 62.4056 43.9903 65.8576 43.7455C69.3143 43.5003 73.6562 43.5 79.48 43.5Z" stroke="url(#paint1_linear_582_419)" shape-rendering="crispEdges"/>
</g>
<defs>
<filter id="filter0_d_582_419" x="0.599998" y="0.599998" width="459.8" height="254.8" filterUnits="userSpaceOnUse" color-interpolation-filters="sRGB">
<feFlood flood-opacity="0" result="BackgroundImageFix"/>
<feColorMatrix in="SourceAlpha" type="matrix" values="0 0 0 0 0 0 0 0 0 0 0 0 0 0 0 0 0 0 127 0" result="hardAlpha"/>
<feOffset/>
<feGaussianBlur stdDeviation="21.2"/>
<feComposite in2="hardAlpha" operator="out"/>
<feColorMatrix type="matrix" values="0 0 0 0 0.04 0 0 0 0 0.712 0 0 0 0 1 0 0 0 0.53 0"/>
<feBlend mode="normal" in2="BackgroundImageFix" result="effect1_dropShadow_582_419"/>
<feBlend mode="normal" in="SourceGraphic" in2="effect1_dropShadow_582_419" result="shape"/>
</filter>
<linearGradient id="paint0_linear_582_419" x1="512.379" y1="462" x2="113.361" y2="-15.7643" gradientUnits="userSpaceOnUse">
<stop stop-color="white" stop-opacity="0.6"/>
<stop offset="1" stop-color="white" stop-opacity="0"/>
</linearGradient>
<linearGradient id="paint1_linear_582_419" x1="43" y1="43" x2="371.004" y2="278.465" gradientUnits="userSpaceOnUse">
<stop stop-color="#0057FF"/>
<stop offset="1" stop-color="#00FFFF" stop-opacity="0.95"/>
</linearGradient>
</defs>
</svg>
