<svg width="657" height="255" viewBox="0 0 657 255" fill="none" xmlns="http://www.w3.org/2000/svg">
<g filter="url(#filter0_d_583_420)">
<path d="M43 79.48C43 67.8466 43 62.0298 44.9739 57.4685C47.3982 51.8662 51.8662 47.3982 57.4685 44.9739C62.0298 43 67.8466 43 79.48 43H577.52C589.153 43 594.97 43 599.532 44.9739C605.134 47.3982 609.602 51.8662 612.026 57.4685C614 62.0298 614 67.8466 614 79.48V175.52C614 187.153 614 192.97 612.026 197.532C609.602 203.134 605.134 207.602 599.532 210.026C594.97 212 589.153 212 577.52 212H79.48C67.8466 212 62.0298 212 57.4685 210.026C51.8662 207.602 47.3982 203.134 44.9739 197.532C43 192.97 43 187.153 43 175.52V79.48Z" fill="url(#paint0_linear_583_420)" shape-rendering="crispEdges"/>
<path d="M79.48 43.5H577.52C583.344 43.5 587.686 43.5003 591.142 43.7455C594.594 43.9903 597.126 44.4776 599.333 45.4328C604.819 47.8066 609.193 52.1815 611.567 57.667C612.522 59.8743 613.01 62.4056 613.255 65.8576C613.5 69.3143 613.5 73.6562 613.5 79.48V175.52C613.5 181.344 613.5 185.686 613.255 189.142C613.01 192.594 612.522 195.126 611.567 197.333C609.193 202.819 604.819 207.193 599.333 209.567C597.126 210.522 594.594 211.01 591.142 211.255C587.686 211.5 583.344 211.5 577.52 211.5H79.48C73.6562 211.5 69.3143 211.5 65.8576 211.255C62.4056 211.01 59.8743 210.522 57.667 209.567C52.1815 207.193 47.8066 202.819 45.4328 197.333C44.4776 195.126 43.9903 192.594 43.7455 189.142C43.5003 185.686 43.5 181.344 43.5 175.52V79.48C43.5 73.6562 43.5003 69.3143 43.7455 65.8576C43.9903 62.4056 44.4776 59.8743 45.4328 57.667C47.8066 52.1815 52.1815 47.8066 57.667 45.4328C59.8743 44.4776 62.4056 43.9903 65.8576 43.7455C69.3143 43.5003 73.6562 43.5 79.48 43.5Z" stroke="url(#paint1_linear_583_420)" shape-rendering="crispEdges"/>
</g>
<defs>
<filter id="filter0_d_583_420" x="0.599998" y="0.599998" width="655.8" height="253.8" filterUnits="userSpaceOnUse" color-interpolation-filters="sRGB">
<feFlood flood-opacity="0" result="BackgroundImageFix"/>
<feColorMatrix in="SourceAlpha" type="matrix" values="0 0 0 0 0 0 0 0 0 0 0 0 0 0 0 0 0 0 127 0" result="hardAlpha"/>
<feOffset/>
<feGaussianBlur stdDeviation="21.2"/>
<feComposite in2="hardAlpha" operator="out"/>
<feColorMatrix type="matrix" values="0 0 0 0 0.04 0 0 0 0 0.712 0 0 0 0 1 0 0 0 0.53 0"/>
<feBlend mode="normal" in2="BackgroundImageFix" result="effect1_dropShadow_583_420"/>
<feBlend mode="normal" in="SourceGraphic" in2="effect1_dropShadow_583_420" result="shape"/>
</filter>
<linearGradient id="paint0_linear_583_420" x1="43" y1="43" x2="738.838" y2="721.564" gradientUnits="userSpaceOnUse">
<stop stop-color="white" stop-opacity="0"/>
<stop offset="1" stop-color="#FEFFFF" stop-opacity="0.67"/>
</linearGradient>
<linearGradient id="paint1_linear_583_420" x1="43" y1="43" x2="608.494" y2="228.76" gradientUnits="userSpaceOnUse">
<stop stop-color="#0066FF"/>
<stop offset="1" stop-color="#01FFFF"/>
</linearGradient>
</defs>
</svg>
